<svg class="animated" id="freepik_stories-breakfast-food" xmlns="http://www.w3.org/2000/svg" viewBox="0 0 500 500" version="1.1" xmlns:xlink="http://www.w3.org/1999/xlink" xmlns:svgjs="http://svgjs.com/svgjs"><style>svg#freepik_stories-breakfast-food:not(.animated) .animable {opacity: 0;}svg#freepik_stories-breakfast-food.animated #freepik--Fork--inject-134 {animation: 1.5s Infinite  linear floating;animation-delay: 0s;}svg#freepik_stories-breakfast-food.animated #freepik--Juice--inject-134 {animation: 1.5s Infinite  linear floating;animation-delay: 0s;}svg#freepik_stories-breakfast-food.animated #freepik--Food--inject-134 {animation: 1.5s Infinite  linear floating;animation-delay: 0s;}svg#freepik_stories-breakfast-food.animated #freepik--Bread--inject-134 {animation: 1.5s Infinite  linear floating;animation-delay: 0s;}            @keyframes floating {                0% {                    opacity: 1;                    transform: translateY(0px);                }                50% {                    transform: translateY(-10px);                }                100% {                    opacity: 1;                    transform: translateY(0px);                }            }        </style><g id="freepik--background-simple--inject-134" class="animable" style="transform-origin: 251.91px 254.575px;"><g id="els4bjxb7wax" class="animable" style="transform-origin: 251.91px 254.575px;"><path d="M486.55,272.02c-.07-30-5.07-59.48-13.24-86.8-24.39-81.56-80.73-152.81-153.99-149.22-46.98,2.3-93.94,10.18-140.92,16.42-40.1,5.33-79.97,10.21-113.59,46.06-14.55,15.52-26.72,35-34.84,56.82-22.56,60.68-13.23,132.31,13.56,184.62,26.79,52.31,68.66,88,112.27,116.11,17.78,11.46,37.88,22.08,58.1,14.93,12.45-4.4,23.34-15.08,35.31-21.73,40.3-22.37,83.67,3.95,126.31-1.72,25.33-3.37,50.39-18.6,69.43-42.2,22.75-28.2,36.36-67.33,40.28-106.46,.9-8.96,1.31-17.91,1.29-26.82Z" style="fill: rgb(255, 114, 94); transform-origin: 251.91px 254.575px;" id="el9j8x0q4dg09" class="animable"></path><g id="el17gi8fuku2fj"><path d="M486.55,272.02c-.07-30-5.07-59.48-13.24-86.8-24.39-81.56-80.73-152.81-153.99-149.22-46.98,2.3-93.94,10.18-140.92,16.42-40.1,5.33-79.97,10.21-113.59,46.06-14.55,15.52-26.72,35-34.84,56.82-22.56,60.68-13.23,132.31,13.56,184.62,26.79,52.31,68.66,88,112.27,116.11,17.78,11.46,37.88,22.08,58.1,14.93,12.45-4.4,23.34-15.08,35.31-21.73,40.3-22.37,83.67,3.95,126.31-1.72,25.33-3.37,50.39-18.6,69.43-42.2,22.75-28.2,36.36-67.33,40.28-106.46,.9-8.96,1.31-17.91,1.29-26.82Z" style="fill: rgb(255, 255, 255); opacity: 0.7; transform-origin: 251.91px 254.575px;" class="animable"></path></g></g></g><g id="freepik--Fork--inject-134" class="animable animator-active" style="transform-origin: 384.71px 388.532px;"><g id="el8hj2hsrd2n3" class="animable" style="transform-origin: 384.71px 388.532px;"><path d="M313.06,482.65s98.85-103.26,104.16-104.23c5.3-.96,20.25,.48,28.93-3.86,8.68-4.34,14.64-17.23,14.64-17.23,0,0-21.39,12.89-33.44,12.41-12.05-.48-14.46-7.23-47.25,30.37s-67.03,82.53-67.03,82.53Z" style="fill: rgb(38, 50, 56); stroke: rgb(38, 50, 56); stroke-miterlimit: 10; transform-origin: 386.925px 419.99px;" id="elkjvru5s4q7" class="animable"></path><path d="M494.94,291.37s-24.39,55.75-33.45,67.94c-9.06,12.19-14.98,14.98-23.69,14.29-8.71-.7-19.86-3.83-27.53,1.05-7.67,4.88-91.29,100.35-97.21,108.01-5.92,7.67-7.32,13.94-20.21,12.19-12.89-1.74-17.77-7.67-18.47-15.68-.7-8.01,4.88-12.54,4.88-12.54,0,0,31.01-15.68,47.39-32.06,16.38-16.38,66.2-56.44,72.12-62.72s12.89-9.06,12.89-9.06c0,0-3.14-2.44-1.39-6.97s6.27-5.23,27.53-32.75c21.25-27.53,31.71-43.9,31.36-40.77-.35,3.14-19.71,34.02-26.04,44.69-6.33,10.67-14.83,19.17-15.17,22-.33,2.83,3,2.17,5.17,0,2.17-2.17,15.67-21,27.16-38.66,11.5-17.67,17.83-27.33,17.33-25.16s-11.17,21.33-18.17,35.16c-7,13.83-22,31.66-21.33,32.83s.83,1.67,2.83,1.67,40.66-60.66,42.83-64.83c2.17-4.17,2-.83,1,1.33-1,2.17-25.66,49.66-30.66,56.33-5,6.67-7.67,9.33-5.67,10.5,2,1.17,4.67,.17,9-6.5,4.33-6.67,33.33-57.16,34.66-59.33,1.33-2.17,3.65-3.93,2.83-.96Z" style="fill: rgb(255, 255, 255); stroke: rgb(38, 50, 56); stroke-miterlimit: 10; transform-origin: 384.71px 388.532px;" id="el8bmu3mgt4d" class="animable"></path><path d="M426.38,363.24c-2.95-1.47-14.76-5.49-16.11-7.41,1.74-4.53,6.27-5.23,27.53-32.75,21.25-27.53,31.71-43.9,31.36-40.77-.35,3.14-19.71,34.02-26.04,44.69-6.33,10.67-14.83,19.17-15.17,22-.33,2.83,3,2.17,5.17,0,2.17-2.17,15.67-21,27.16-38.66,11.5-17.67,17.83-27.33,17.33-25.16s-11.17,21.33-18.17,35.16c-7,13.83-22,31.66-21.33,32.83s.83,1.67,2.83,1.67,40.66-60.66,42.83-64.83c2.17-4.17,2-.83,1,1.33-1,2.17-25.66,49.66-30.66,56.33-5,6.67-7.67,9.33-5.67,10.5,2,1.17,4.67,.17,9-6.5s33.33-57.16,34.66-59.33c1.33-2.17,3.65-3.93,2.83-.96,0,0-24.39,55.75-33.45,67.94-.27,.36-.54,.72-.8,1.06l.1-3.03s-8.36,11.06-12.78,12.04c0,0-34.9-16.47-34.65-14.75,.25,1.72,22.61,9.58,21.87,10.81-.74,1.23-13.27,.25-14.25-.49-.98-.74,8.36-.25,5.41-1.72Z" style="fill: rgb(158, 158, 158); transform-origin: 452.686px 325.659px;" id="elrs0znirvs5s" class="animable"></path><path d="M408.44,368.89s-16.96,15.24-35.64,36.62c-18.68,21.38-40.8,48.66-51.36,59.47-10.57,10.81-18.43,18.92-26.3,18.92s-18.68-2.46-14.01-11.31c4.67-8.85,37.85-29.74,60.95-47.92,23.1-18.19,50.14-44.24,54.07-47.92,3.93-3.69,10.81-11.55,12.29-7.86Z" style="fill: rgb(229, 229, 229); transform-origin: 344.22px 425.914px;" id="elzpgut34suf" class="animable"></path><path d="M494.94,291.37s-24.39,55.75-33.45,67.94c-9.06,12.19-14.98,14.98-23.69,14.29-8.71-.7-19.86-3.83-27.53,1.05-7.67,4.88-91.29,100.35-97.21,108.01-5.92,7.67-7.32,13.94-20.21,12.19-12.89-1.74-17.77-7.67-18.47-15.68-.7-8.01,4.88-12.54,4.88-12.54,0,0,31.01-15.68,47.39-32.06,16.38-16.38,66.2-56.44,72.12-62.72s12.89-9.06,12.89-9.06c0,0-3.14-2.44-1.39-6.97s6.27-5.23,27.53-32.75c21.25-27.53,31.71-43.9,31.36-40.77-.35,3.14-19.71,34.02-26.04,44.69-6.33,10.67-14.83,19.17-15.17,22-.33,2.83,3,2.17,5.17,0,2.17-2.17,15.67-21,27.16-38.66,11.5-17.67,17.83-27.33,17.33-25.16s-11.17,21.33-18.17,35.16c-7,13.83-22,31.66-21.33,32.83s.83,1.67,2.83,1.67,40.66-60.66,42.83-64.83c2.17-4.17,2-.83,1,1.33-1,2.17-25.66,49.66-30.66,56.33-5,6.67-7.67,9.33-5.67,10.5,2,1.17,4.67,.17,9-6.5,4.33-6.67,33.33-57.16,34.66-59.33,1.33-2.17,3.65-3.93,2.83-.96Z" style="fill: none; stroke: rgb(38, 50, 56); stroke-miterlimit: 10; transform-origin: 384.71px 388.532px;" id="elvc6n2v3517" class="animable"></path></g></g><g id="freepik--Juice--inject-134" class="animable" style="transform-origin: 392.735px 113.365px;"><g id="elshu2vijz8q" class="animable" style="transform-origin: 392.735px 113.365px;"><ellipse cx="394.14" cy="180.08" rx="67.66" ry="43.75" style="fill: rgb(38, 50, 56); transform-origin: 394.14px 180.08px;" id="elxv59ft8bsuq" class="animable"></ellipse><g id="elwrcluqyw1hl" class="animable" style="transform-origin: 390.9px 110.405px;"><path d="M323.67,38.24V176.12c0,19.52,30.1,41.79,67.23,41.79s67.23-22.27,67.23-41.79V38.24h-134.46Z" style="fill: rgb(255, 255, 255); stroke: rgb(38, 50, 56); stroke-miterlimit: 10; transform-origin: 390.9px 128.075px;" id="el7b3km3lwbhw" class="animable"></path><path d="M323.67,162.43c0,19.52,30.1,41.79,67.23,41.79s67.23-22.27,67.23-41.79V38.24h-134.46v124.2Z" style="fill: rgb(255, 114, 94); transform-origin: 390.9px 121.23px;" id="elo2f25m1sfnr" class="animable"></path><path d="M323.67,38.24V176.12c0,19.52,30.1,41.79,67.23,41.79s67.23-22.27,67.23-41.79V38.24h-134.46Z" style="fill: none; stroke: rgb(38, 50, 56); stroke-miterlimit: 10; transform-origin: 390.9px 128.075px;" id="elifjeja0n9li" class="animable"></path><ellipse cx="390.9" cy="38.24" rx="67.23" ry="35.34" style="fill: rgb(255, 255, 255); stroke: rgb(38, 50, 56); stroke-miterlimit: 10; transform-origin: 390.9px 38.24px;" id="elmkiy76dwud" class="animable"></ellipse><g id="ely0s0uvt4oqn" class="animable" style="transform-origin: 390.9px 38.24px;"><ellipse cx="390.9" cy="38.24" rx="63.6" ry="32.1" style="fill: rgb(255, 255, 255); stroke: rgb(38, 50, 56); stroke-miterlimit: 10; transform-origin: 390.9px 38.24px;" id="elqxrkpxs7qw" class="animable"></ellipse><path d="M390.9,25.55c-28.42,0-52.48,9.41-60.63,22.39,8.15,12.98,32.21,22.39,60.63,22.39s52.48-9.41,60.63-22.39c-8.15-12.98-32.21-22.39-60.63-22.39Z" style="fill: rgb(255, 114, 94); transform-origin: 390.9px 47.94px;" id="el22wfxoohh1x" class="animable"></path><ellipse cx="390.9" cy="38.24" rx="63.6" ry="32.1" style="fill: none; stroke: rgb(38, 50, 56); stroke-miterlimit: 10; transform-origin: 390.9px 38.24px;" id="elfck1254m5c7" class="animable"></ellipse></g><g id="elqe1cv6esuz"><path d="M449.75,185.28s-.49,.55-1.45,1.46c-2.4,2.27-7.75,6.78-15.96,10.8-11.53,5.64-29.68,8.34-28.21,8.83,1.47,.49,8.58-.25,16.43-1.96,7.85-1.72,1.96,2.45-1.96,3.92s-8.09,3.19-13.49,3.92-9.32-.49-5.4,.74c3.92,1.23,12.02,.74,26.73-5.15,14.72-5.89,27.47-19.62,24.77-18.15-2.7,1.47-6.13,3.92-6.13,3.92,0,0,7.85-6.87,8.34-9.81,.49-2.94-3.68,1.47-3.68,1.47Z" style="opacity: 0.31; transform-origin: 425.791px 198.164px;" class="animable"></path></g><g id="elfsogl2i9sb7"><path d="M336.69,191.16s2.37,4.27,11.57,9.16c9.19,4.88,13.94,5.8,13.94,5.8,0,0-4.15,.31-13.35-3.36s-12.16-11.6-12.16-11.6Z" style="opacity: 0.31; transform-origin: 349.445px 198.643px;" class="animable"></path></g></g></g></g><g id="freepik--Food--inject-134" class="animable" style="transform-origin: 207.1px 302.475px;"><g id="elt7q4xvpoc2" class="animable" style="transform-origin: 207.1px 302.475px;"><g id="elairm1npvaps" class="animable" style="transform-origin: 207.1px 302.475px;"><ellipse cx="208.84" cy="309.8" rx="194.32" ry="136.77" style="fill: rgb(38, 50, 56); transform-origin: 208.84px 309.8px;" id="elrskp7wibllc" class="animable"></ellipse><ellipse cx="203.97" cy="301.6" rx="191.09" ry="136.77" style="fill: rgb(255, 114, 94); stroke: rgb(38, 50, 56); stroke-miterlimit: 10; transform-origin: 203.97px 301.6px;" id="el1ve4esm3jtn" class="animable"></ellipse><ellipse cx="205.36" cy="295.15" rx="194.32" ry="136.77" style="fill: rgb(255, 255, 255); stroke: rgb(38, 50, 56); stroke-miterlimit: 10; transform-origin: 205.36px 295.15px;" id="elqretznj7mzo" class="animable"></ellipse></g><path d="M33.81,289.09l40.15-6.34s2.64,6.87,4.75,6.34c2.11-.53,14.26-2.64,15.85-2.64s7.92,8.98,7.92,8.98c0,0-17.43,40.15-17.96,56-.53,15.85,15.32,19.55,16.9,25.89,1.58,6.34-5.51,11.17-5.28,15.32,.22,4.15,10.95,7.41,13.21,9.51s4.75,3.7,10.04,7.92c5.28,4.23,95.62,16.38,109.35,9.51,13.73-6.87,16.9-28,16.9-28,0,0,7.4,5.81,30.11,8.45,22.72,2.64,41.21-4.23,44.9-6.34,3.7-2.11,24.3-57.58,23.24-61.28-1.06-3.7,1.58-7.92,1.58-7.92,0,0,9.51-10.04,9.51-12.15s4.23,5.28,8.98,2.11c4.75-3.17,7.4-12.15,5.28-18.49-2.11-6.34-44.37-31.7-63.92-40.68-19.55-8.98-41.73-23.24-52.83-26.94s-43.32,1.06-43.32,1.06l-175.39,59.69Z" style="fill: rgb(38, 50, 56); transform-origin: 201.88px 324.287px;" id="elt1mwg1nc3up" class="animable"></path><path d="M81.75,300.98s-5.29-8.71-10.26-6.22c-4.98,2.49-14.93,32.35-16.8,47.9s7.15,43.55,10.89,46.04c3.73,2.49,15.55,3.73,17.11,3.11s3.11-2.18,3.11-2.18l4.98-8.4,1.24-3.73s-4.35,2.8-1.87-3.42c2.49-6.22,2.49-5.6,1.56-9.33-.93-3.73-1.56-9.33-1.56-9.33,0,0-6.22-41.68-6.53-46.97-.31-5.29-1.87-7.47-1.87-7.47Z" style="fill: rgb(158, 158, 158); stroke: rgb(38, 50, 56); stroke-miterlimit: 10; transform-origin: 73.3598px 343.14px;" id="el8tprh3i9vsh" class="animable"></path><g id="elgj67vvkxwgf" class="animable" style="transform-origin: 183.561px 384.736px;"><path d="M187.11,339.34c-6.53-.4-13.25-.35-19.83-.1-16.8,.62-27.99,20.53-30.17,24.88-2.18,4.35-29.24,28.31-16.8,45.41,12.44,17.11,55.06,21.46,89.27,20.84,34.22-.62,39.5-26.75,40.44-36.08,.93-9.33-11.82-29.55-11.82-29.55,0,0-10.26-13.06-23.33-19.29-7.95-3.78-17.62-5.5-27.77-6.12" style="fill: rgb(255, 255, 255); stroke: rgb(38, 50, 56); stroke-miterlimit: 10; transform-origin: 183.561px 384.736px;" id="el2zgoyfmg639" class="animable"></path><path d="M195.91,362.25s-23.95,5.91-30.17,19.6c-6.22,13.69,1.87,26.44,23.64,31.11,21.77,4.67,33.59-4.98,38.57-14.93s-.62-26.75-10.58-30.79-21.46-4.98-21.46-4.98Z" style="fill: rgb(255, 114, 94); stroke: rgb(38, 50, 56); stroke-miterlimit: 10; transform-origin: 196.752px 388.211px;" id="eljhhf5tw8r1" class="animable"></path><g id="elgklouqrt32t"><g style="opacity: 0.3; transform-origin: 185.49px 379.51px;" class="animable"><circle cx="197" cy="377.34" r="1.09" id="eld9xpxtl8if" class="animable" style="transform-origin: 197px 377.34px;"></circle><path d="M209.59,371.12c0,.43-.7,.78-1.56,.78s-1.56-.35-1.56-.78,.7-.78,1.56-.78,1.56,.35,1.56,.78Z" id="elej71124nigp" class="animable" style="transform-origin: 208.03px 371.12px;"></path><path d="M212.61,380.11c0,.93-.95,1.68-2.13,1.68s-2.13-.75-2.13-1.68,.95-1.68,2.13-1.68,2.13,.75,2.13,1.68Z" id="eldxt4dmyj7c" class="animable" style="transform-origin: 210.48px 380.11px;"></path><path d="M207.73,385.58c0,.52-.49,.93-1.09,.93s-1.09-.42-1.09-.93,.49-.93,1.09-.93,1.09,.42,1.09,.93Z" id="el0ep9am94lpan" class="animable" style="transform-origin: 206.64px 385.58px;"></path><path d="M199.64,388.85c0,.43-.77,.78-1.71,.78s-1.71-.35-1.71-.78,.77-.78,1.71-.78,1.71,.35,1.71,.78Z" id="elxleciv498kn" class="animable" style="transform-origin: 197.93px 388.85px;"></path><path d="M190.31,382.32c0,.6-.97,1.09-2.18,1.09s-2.18-.49-2.18-1.09,.97-1.09,2.18-1.09,2.18,.49,2.18,1.09Z" id="el1jq217g3uyk" class="animable" style="transform-origin: 188.13px 382.32px;"></path><path d="M190.62,369.41c0,.52-.49,.93-1.09,.93s-1.09-.42-1.09-.93,.49-.93,1.09-.93,1.09,.42,1.09,.93Z" id="elh1ybjzubnrd" class="animable" style="transform-origin: 189.53px 369.41px;"></path><path d="M184.71,362.25c0,.86-1.04,1.56-2.33,1.56s-2.33-.7-2.33-1.56,1.04-1.56,2.33-1.56,2.33,.7,2.33,1.56Z" id="eldthz0rkw638" class="animable" style="transform-origin: 182.38px 362.25px;"></path><path d="M175.07,367.07c0,.26-.35,.47-.78,.47s-.78-.21-.78-.47,.35-.47,.78-.47,.78,.21,.78,.47Z" id="els9hogls3ng" class="animable" style="transform-origin: 174.29px 367.07px;"></path><path d="M165.11,375.78c0,.43-.42,.78-.93,.78s-.93-.35-.93-.78,.42-.78,.93-.78,.93,.35,.93,.78Z" id="elokp2e0dh3be" class="animable" style="transform-origin: 164.18px 375.78px;"></path><path d="M198.08,356.19c0,.43-.56,.78-1.24,.78s-1.24-.35-1.24-.78,.56-.78,1.24-.78,1.24,.35,1.24,.78Z" id="elad00v27ydxd" class="animable" style="transform-origin: 196.84px 356.19px;"></path><path d="M189.69,355.72c0,.52-.49,.93-1.09,.93s-1.09-.42-1.09-.93,.49-.93,1.09-.93,1.09,.42,1.09,.93Z" id="elps8kw7xugq" class="animable" style="transform-origin: 188.6px 355.72px;"></path><path d="M205.55,356.03c0,.86-.7,1.56-1.56,1.56s-1.56-.7-1.56-1.56,.7-1.56,1.56-1.56,1.56,.7,1.56,1.56Z" id="eltq6bjhy0m8" class="animable" style="transform-origin: 203.99px 356.03px;"></path><ellipse cx="212.7" cy="359.3" rx="1.24" ry=".78" id="eltix6g0eyrl" class="animable" style="transform-origin: 212.7px 359.3px;"></ellipse><path d="M180.66,395.07c0,.77-.63,1.4-1.4,1.4s-1.4-.63-1.4-1.4,.63-1.4,1.4-1.4,1.4,.63,1.4,1.4Z" id="elzk2q4dp8dwq" class="animable" style="transform-origin: 179.26px 395.07px;"></path><ellipse cx="189.53" cy="401.91" rx="2.33" ry="1.09" id="el4gr80s3b4ix" class="animable" style="transform-origin: 189.53px 401.91px;"></ellipse><path d="M154.23,398.34c0,.34-.63,.62-1.4,.62s-1.4-.28-1.4-.62,.63-.62,1.4-.62,1.4,.28,1.4,.62Z" id="eltrtpjzvozrs" class="animable" style="transform-origin: 152.83px 398.34px;"></path><ellipse cx="159.05" cy="402.69" rx="1.71" ry="1.24" id="elzs64ldvtgq" class="animable" style="transform-origin: 159.05px 402.69px;"></ellipse><path d="M156.09,386.2c0,.52-.63,.93-1.4,.93s-1.4-.42-1.4-.93,.63-.93,1.4-.93,1.4,.42,1.4,.93Z" id="el6pcwehal8z9" class="animable" style="transform-origin: 154.69px 386.2px;"></path><path d="M160.14,383.25c0,.6-.63,1.09-1.4,1.09s-1.4-.49-1.4-1.09,.63-1.09,1.4-1.09,1.4,.49,1.4,1.09Z" id="elw2a6w20k65r" class="animable" style="transform-origin: 158.74px 383.25px;"></path><path d="M174.44,383.41c0,1.03-.91,1.87-2.02,1.87s-2.02-.84-2.02-1.87,.91-1.87,2.02-1.87,2.02,.84,2.02,1.87Z" id="elsfapzg6m1v" class="animable" style="transform-origin: 172.42px 383.41px;"></path><path d="M177.87,377.65c0,.43-.21,.78-.47,.78s-.47-.35-.47-.78,.21-.78,.47-.78,.47,.35,.47,.78Z" id="el4ybngyf5rr7" class="animable" style="transform-origin: 177.4px 377.65px;"></path><path d="M203.37,393.2c0,.6-.77,1.09-1.71,1.09s-1.71-.49-1.71-1.09,.77-1.09,1.71-1.09,1.71,.49,1.71,1.09Z" id="el0gjhk8e8rv6s" class="animable" style="transform-origin: 201.66px 393.2px;"></path><path d="M213.95,403.62c0,.52-.56,.93-1.24,.93s-1.24-.42-1.24-.93,.56-.93,1.24-.93,1.24,.42,1.24,.93Z" id="elkque82hmua" class="animable" style="transform-origin: 212.71px 403.62px;"></path><path d="M197.46,367.85c0,.52-.35,.93-.78,.93s-.78-.42-.78-.93,.35-.93,.78-.93,.78,.42,.78,.93Z" id="el97jplgt3dch" class="animable" style="transform-origin: 196.68px 367.85px;"></path><path d="M219.55,373.3c0,.77-.77,1.4-1.71,1.4s-1.71-.63-1.71-1.4,.77-1.4,1.71-1.4,1.71,.63,1.71,1.4Z" id="elda8kypxce9q" class="animable" style="transform-origin: 217.84px 373.3px;"></path><ellipse cx="185.33" cy="374.23" rx="1.24" ry=".78" id="elbygshdrpp7u" class="animable" style="transform-origin: 185.33px 374.23px;"></ellipse><path d="M199.02,383.41c0,.69-.84,1.24-1.87,1.24s-1.87-.56-1.87-1.24,.84-1.24,1.87-1.24,1.87,.56,1.87,1.24Z" id="el3ht7x1j1r3r" class="animable" style="transform-origin: 197.15px 383.41px;"></path></g></g></g><g id="elb3254a7zhbi" class="animable" style="transform-origin: 124.542px 340.259px;"><path d="M112.54,303.15l3.42,20.53,3.42,5.91,.31,3.73-.31,2.8-3.42,6.84,2.49,6.22,.93,5.6-13.06,26.44-4.67,5.6-4.04,4.67-1.24,5.29,.62,3.11,5.6,4.04,4.35,1.24,4.67-.93s2.8-1.56,5.91-1.56,5.29,.93,6.84,.62c1.56-.31,2.49-.93,4.67-1.24s2.49,2.49,4.04,2.18c1.56-.31,4.35-2.18,4.35-2.18,0,0,9.02-17.42,11.51-28.93,2.49-11.51,4.67-15.86,3.42-25.2-1.24-9.33-4.35-14.62-4.35-14.62l-5.91-11.82-3.42-9.64-3.73-8.09s-.62-20.22-9.95-26.13c-9.33-5.91-13.38,1.24-14.62,3.73-1.24,2.49,2.18,21.77,2.18,21.77Z" style="fill: rgb(158, 158, 158); stroke: rgb(38, 50, 56); stroke-miterlimit: 10; transform-origin: 124.542px 340.259px;" id="elil3fedxukxp" class="animable"></path><path d="M121.31,317.92c.52,3.74,1.1,7.35,1.5,8.56,.93,2.8,1.87,4.98,1.87,6.84v3.42s-.93,4.35-.31,5.29c.62,.93,1.87,2.8,1.87,4.04v3.42l-.31,3.73" style="fill: none; stroke: rgb(38, 50, 56); stroke-miterlimit: 10; transform-origin: 123.775px 335.57px;" id="elyoetvwq9s3p" class="animable"></path><path d="M120.01,307.82s.33,2.76,.77,6.19" style="fill: none; stroke: rgb(38, 50, 56); stroke-miterlimit: 10; transform-origin: 120.395px 310.915px;" id="el36a8j42h5w3" class="animable"></path><path d="M138.29,344.47c.55,1.91,1.1,3.55,1.63,4.72,3.11,6.84,3.13,18.98,2.8,19.91" style="fill: none; stroke: rgb(38, 50, 56); stroke-miterlimit: 10; transform-origin: 140.575px 356.785px;" id="el53437rdcv0s" class="animable"></path><path d="M133.07,319.64s1.95,11.88,4.21,21.04" style="fill: none; stroke: rgb(38, 50, 56); stroke-miterlimit: 10; transform-origin: 135.175px 330.16px;" id="elk4lsbo1dgg" class="animable"></path><polyline points="134.23 353.72 134.32 355.1 132.14 359.14" style="fill: none; stroke: rgb(38, 50, 56); stroke-miterlimit: 10; transform-origin: 133.23px 356.43px;" id="elnu7egrajtrk" class="animable"></polyline><path d="M128.41,314.97s1.56,11.2,1.87,13.06c.31,1.87,1.24,6.53,1.24,6.53l2.49,15.55" style="fill: none; stroke: rgb(38, 50, 56); stroke-miterlimit: 10; transform-origin: 131.21px 332.54px;" id="elgettw817blc" class="animable"></path><path d="M113.79,392.43s-3.42,5.6-4.35,6.53,.31-1.24-.93,.93l-1.24,2.18" style="fill: none; stroke: rgb(38, 50, 56); stroke-miterlimit: 10; transform-origin: 110.53px 397.25px;" id="elsuh9l5nojw" class="animable"></path><line x1="129.03" y1="402.07" x2="131.52" y2="396.78" style="fill: none; stroke: rgb(38, 50, 56); stroke-miterlimit: 10; transform-origin: 130.275px 399.425px;" id="eloit991f8gn8" class="animable"></line><line x1="118.14" y1="400.2" x2="124.68" y2="393.67" style="fill: none; stroke: rgb(38, 50, 56); stroke-miterlimit: 10; transform-origin: 121.41px 396.935px;" id="elrt760ejk1j" class="animable"></line></g><g id="eltv5fxfrgr6k" class="animable" style="transform-origin: 168.921px 222.915px;"><path d="M76.8,273.94s.59,7.43,3.08,8.99,5.6,.62,5.6,.62l104.82-35.46s61.9-19.6,65.94-22.4c4.04-2.8,4.57-9.86,4.46-12.55l-.11-2.69s-5.6,2.18-9.64,4.35c-4.04,2.18-167.97,55.99-167.97,55.99,0,0-4.61,.06-6.19,3.14Z" style="fill: rgb(229, 229, 229); stroke: rgb(38, 50, 56); stroke-miterlimit: 10; transform-origin: 168.751px 247.14px;" id="elfhh8kyuhf4p" class="animable"></path><path d="M252.69,205.12l-9.18-2.68s-8.41-4.97-10.71-5.74c-2.29-.76-4.97-2.29-4.97-2.29,0,0,0-2.29-3.44-3.82s-6.88-2.29-6.88-2.29c0,0-4.59-3.82-9.56-5.35-4.97-1.53-9.18-2.29-9.18-2.29,0,0-4.21-1.91-5.74-2.29-1.53-.38-2.29,1.53-4.21-.76-1.91-2.29-1.91-4.59-7.65-7.26l-5.74-2.68s-5.35-7.26-9.56-5.35c-4.21,1.91-8.41,3.44-10.32,6.12s-9.94,11.09-11.85,15.29c-1.91,4.21-4.21,7.26-4.21,7.26,0,0-13,16.44-16.06,21.41-3.06,4.97-7.65,9.56-7.65,9.56,0,0-29.06,32.12-30.97,35.56s-9.56,13.76-8.03,16.44,66.91-18.35,66.91-18.35l96.35-33.27s18.35-6.88,20.65-9.18c2.29-2.29-2.68-8.03-8.03-8.03Z" style="fill: rgb(255, 114, 94); stroke: rgb(38, 50, 56); stroke-miterlimit: 10; transform-origin: 168.921px 218.098px;" id="el1xq89n2ybok" class="animable"></path><g id="el8w5vgpk5p49"><g style="opacity: 0.22; transform-origin: 169.82px 218.62px;" class="animable"><path d="M189.17,177.96c-.11-.11-.22-.23-.33-.37-1.01-1.22-1.5-2.43-2.57-3.7l-65.86,88.99c2.68-.82,5.26-1.61,7.67-2.36l61.1-82.56Z" id="elv3jyvego58" class="animable" style="transform-origin: 154.795px 218.385px;"></path><path d="M101.53,268.49c23.22-27.78,64.32-82.54,76.94-99.43q-3.02-1.41-3.02-1.41s-.37-.49-.97-1.19c-13.71,18.35-59.42,79.23-81.13,104.32,2.58-.7,5.33-1.47,8.18-2.29Z" id="els81aegmkn5d" class="animable" style="transform-origin: 135.91px 218.62px;"></path><path d="M204.4,181.94c-2.25-.59-4.05-.97-4.97-1.16l-49.82,72.78,7.55-2.61,47.24-69.01Z" id="elqi09mrp70zd" class="animable" style="transform-origin: 177.005px 217.17px;"></path><path d="M217.88,188.38c-.23-.06-.37-.09-.37-.09,0,0-1.45-1.21-3.6-2.54l-40.12,59.45,7.48-2.58,36.61-54.24Z" id="eljou4bk26rc" class="animable" style="transform-origin: 195.835px 215.475px;"></path><path d="M246.29,203.26l-2.78-.81s-.68-.4-1.69-.98l-15.38,25.57,7.01-2.42,12.84-21.36Z" id="elg8snv6ptxl7" class="animable" style="transform-origin: 236.365px 214.255px;"></path><path d="M210.08,232.68l20.6-36.82c-1.56-.71-2.85-1.45-2.85-1.45,0,0,0-.84-.76-1.83l-23.75,42.43,6.76-2.33Z" id="elfk408s79egg" class="animable" style="transform-origin: 217px 213.795px;"></path></g></g></g><g id="elwcy1mp46epq" class="animable" style="transform-origin: 121.011px 228.515px;"><path d="M28.9,279.54s.59,7.43,3.08,8.99c2.49,1.56,5.6,.62,5.6,.62l104.82-35.46s61.9-19.6,65.94-22.4,4.57-9.86,4.46-12.55l-.11-2.69s-5.6,2.18-9.64,4.35c-4.04,2.18-167.97,55.99-167.97,55.99,0,0-4.61,.06-6.19,3.14Z" style="fill: rgb(229, 229, 229); stroke: rgb(38, 50, 56); stroke-miterlimit: 10; transform-origin: 120.851px 252.74px;" id="eliatff4xeklr" class="animable"></path><path d="M204.78,210.72l-9.18-2.68s-8.41-4.97-10.71-5.74c-2.29-.76-4.97-2.29-4.97-2.29,0,0,0-2.29-3.44-3.82-3.44-1.53-6.88-2.29-6.88-2.29,0,0-4.59-3.82-9.56-5.35-4.97-1.53-9.18-2.29-9.18-2.29,0,0-4.21-1.91-5.74-2.29-1.53-.38-2.29,1.53-4.21-.76-1.91-2.29-1.91-4.59-7.65-7.26l-5.74-2.68s-5.35-7.26-9.56-5.35c-4.21,1.91-8.41,3.44-10.32,6.12-1.91,2.68-9.94,11.09-11.85,15.29-1.91,4.21-4.21,7.26-4.21,7.26,0,0-13,16.44-16.06,21.41s-7.65,9.56-7.65,9.56c0,0-29.06,32.12-30.97,35.56-1.91,3.44-9.56,13.76-8.03,16.44s66.91-18.35,66.91-18.35l96.35-33.27s18.35-6.88,20.65-9.18c2.29-2.29-2.68-8.03-8.03-8.03Z" style="fill: rgb(255, 114, 94); stroke: rgb(38, 50, 56); stroke-miterlimit: 10; transform-origin: 121.011px 223.698px;" id="elg7g1gg6a4b7" class="animable"></path><g id="elv4ytdtwf54g"><g style="opacity: 0.22; transform-origin: 121.92px 224.22px;" class="animable"><path d="M141.26,183.56c-.11-.11-.22-.23-.33-.37-1.01-1.22-1.5-2.43-2.57-3.7l-65.86,88.99c2.68-.82,5.26-1.61,7.67-2.36l61.1-82.56Z" id="elurn3k8rpups" class="animable" style="transform-origin: 106.885px 223.985px;"></path><path d="M53.63,274.09c23.22-27.78,64.32-82.54,76.94-99.43q-3.02-1.41-3.02-1.41s-.37-.49-.97-1.19c-13.71,18.35-59.42,79.23-81.13,104.32,2.58-.7,5.33-1.47,8.18-2.29Z" id="elacuwh8bks8q" class="animable" style="transform-origin: 88.01px 224.22px;"></path><path d="M156.5,187.53c-2.25-.59-4.05-.97-4.97-1.16l-49.82,72.78,7.55-2.61,47.24-69.01Z" id="elrb2hn63xgb" class="animable" style="transform-origin: 129.105px 222.76px;"></path><path d="M169.98,193.98c-.24-.06-.37-.09-.37-.09,0,0-1.45-1.21-3.6-2.54l-40.12,59.45,7.48-2.58,36.61-54.24Z" id="eljwi4jdihp4g" class="animable" style="transform-origin: 147.935px 221.075px;"></path><path d="M198.39,208.85l-2.78-.81s-.68-.4-1.69-.98l-15.38,25.57,7.01-2.42,12.84-21.36Z" id="elaz44t54zlil" class="animable" style="transform-origin: 188.465px 219.845px;"></path><path d="M162.18,238.28l20.6-36.82c-1.56-.71-2.85-1.45-2.85-1.45,0,0,0-.84-.76-1.83l-23.75,42.43,6.76-2.33Z" id="elitwsxtlksp" class="animable" style="transform-origin: 169.1px 219.395px;"></path></g></g></g><g id="elfd941ankycq" class="animable" style="transform-origin: 317.44px 265.264px;"><path d="M258.74,230.68s-1.24-9.33,7.47-11.2c8.71-1.87,13.69,4.67,32.66,10.26,18.97,5.6,34.15,7.16,52.5,23.64,18.35,16.49,26.19,40.74,24.64,47.9-1.56,7.15-7.43,12.99-15.55,8.55-3.66-2-5.91-10.41-12.44-19.12-6.53-8.71-21.77-25.82-34.22-34.53-12.44-8.71-48.52-17.73-51.95-19.6s-3.11-5.91-3.11-5.91Z" style="fill: rgb(158, 158, 158); stroke: rgb(38, 50, 56); stroke-miterlimit: 10; transform-origin: 317.44px 265.264px;" id="el5j163do2j3v" class="animable"></path><path d="M367.61,300.35s-1.87,3.11-5.29,2.49c-3.42-.62-5.6-3.73-5.6-3.73" style="fill: none; stroke: rgb(38, 50, 56); stroke-miterlimit: 10; transform-origin: 362.165px 301.016px;" id="elh0hvqrpipuv" class="animable"></path><path d="M368.23,304.4s-2.18,2.8-4.98,2.49" style="fill: none; stroke: rgb(38, 50, 56); stroke-miterlimit: 10; transform-origin: 365.74px 305.657px;" id="el9izakdng18r" class="animable"></path><path d="M370.41,300.35s2.8,.93,4.04-2.8" style="fill: none; stroke: rgb(38, 50, 56); stroke-miterlimit: 10; transform-origin: 372.43px 299.001px;" id="el9q6udqk2ga6" class="animable"></path><path d="M369.34,295.14s.58,2.9-.39,4.64" style="fill: none; stroke: rgb(38, 50, 56); stroke-miterlimit: 10; transform-origin: 369.231px 297.46px;" id="elrz0rcaugmh8" class="animable"></path><path d="M268.25,225.36s-6.19-1.55-7.73,.19c-1.55,1.74-.39,3.87,.19,4.64" style="fill: none; stroke: rgb(38, 50, 56); stroke-miterlimit: 10; transform-origin: 263.998px 227.457px;" id="elkybctlg5mxk" class="animable"></path></g><g id="elwonghp32x7k" class="animable" style="transform-origin: 297.169px 274.596px;"><path d="M254.7,228.5s-6.84-3.42-10.89,0c-4.04,3.42-7.15,12.75,9.02,22.08,16.17,9.33,32.04,10.26,39.19,15.86,7.15,5.6,25.2,31.11,30.17,40.75,4.98,9.64,6.53,15.86,20.22,14.93,13.69-.93,12.44-7.47,9.33-18.66-3.11-11.2-25.51-42.3-38.88-51.63-13.38-9.33-27.06-12.13-35.77-14.62-8.71-2.49-22.4-8.71-22.4-8.71Z" style="fill: rgb(158, 158, 158); stroke: rgb(38, 50, 56); stroke-miterlimit: 10; transform-origin: 297.169px 274.596px;" id="elcxguf1ikesk" class="animable"></path><path d="M269.53,249.86c3.27,.86,5.7,1.34,5.7,1.34" style="fill: none; stroke: rgb(38, 50, 56); stroke-miterlimit: 10; transform-origin: 272.38px 250.53px;" id="el0roo7lxe46a" class="animable"></path><path d="M246.92,236.28s7.47,8.4,14,10.89c1.85,.71,3.81,1.34,5.66,1.88" style="fill: none; stroke: rgb(38, 50, 56); stroke-miterlimit: 10; transform-origin: 256.75px 242.665px;" id="elw018ibns2y" class="animable"></path><path d="M271.8,244.68s4.67,0,14.31,4.35" style="fill: none; stroke: rgb(38, 50, 56); stroke-miterlimit: 10; transform-origin: 278.955px 246.855px;" id="el6sblwfgy0ug" class="animable"></path><path d="M342.41,315.91s-2.8,2.49-8.4,1.24" style="fill: none; stroke: rgb(38, 50, 56); stroke-miterlimit: 10; transform-origin: 338.21px 316.706px;" id="elzrwrerthik" class="animable"></path><path d="M343.97,312.8s4.98,.62,4.98-4.67" style="fill: none; stroke: rgb(38, 50, 56); stroke-miterlimit: 10; transform-origin: 346.46px 310.476px;" id="ellf82zkvkyy" class="animable"></path><path d="M310.91,277.33c-6.24-7.35-12.36-13.68-12.36-13.68" style="fill: none; stroke: rgb(38, 50, 56); stroke-miterlimit: 10; transform-origin: 304.73px 270.49px;" id="elf0xubfj5pho" class="animable"></path><path d="M340.55,302.53s3.11,7.15,.93,9.64c0,0-4.98,2.8-9.95,.31-4.98-2.49-3.73-8.4-8.71-18.66-1.92-3.95-5.96-9.34-10.2-14.46" style="fill: none; stroke: rgb(38, 50, 56); stroke-miterlimit: 10; transform-origin: 327.438px 296.436px;" id="elp6meabdyf1b" class="animable"></path><path d="M345.83,315.6s.93,1.87,4.35,.31" style="fill: none; stroke: rgb(38, 50, 56); stroke-miterlimit: 10; transform-origin: 348.005px 316.066px;" id="el867wnaqrwda" class="animable"></path><path d="M295.13,261.47s-4.35-3.42-7.47-4.98" style="fill: none; stroke: rgb(38, 50, 56); stroke-miterlimit: 10; transform-origin: 291.395px 258.98px;" id="elyg98tetpue" class="animable"></path></g><g id="elbrn163agaqj" class="animable" style="transform-origin: 225.545px 255.958px;"><path d="M253.37,249.91s-.77,15.66-1.35,18.56c-.58,2.9-1.93,6.38-15.27,8.31-13.34,1.93-25.52,1.74-30.73-1.16-5.22-2.9-8.31-9.08-8.31-9.08l1.55-18.56,54.12,1.93Z" style="fill: rgb(158, 158, 158); stroke: rgb(38, 50, 56); stroke-miterlimit: 10; transform-origin: 225.545px 263.013px;" id="el3h6pjdrvyte" class="animable"></path><ellipse cx="226.6" cy="249.91" rx="26.77" ry="16.04" style="fill: rgb(214, 214, 214); stroke: rgb(38, 50, 56); stroke-miterlimit: 10; transform-origin: 226.6px 249.91px;" id="el8o98xe2aycw" class="animable"></ellipse><ellipse cx="239.03" cy="247.27" rx="1.55" ry=".91" style="fill: none; stroke: rgb(38, 50, 56); stroke-miterlimit: 10; transform-origin: 239.03px 247.27px;" id="elk4926x1efkf" class="animable"></ellipse><path d="M227.11,241.05c0,.64-.81,1.17-1.81,1.17s-1.81-.52-1.81-1.17,.81-1.17,1.81-1.17,1.81,.52,1.81,1.17Z" style="fill: none; stroke: rgb(38, 50, 56); stroke-miterlimit: 10; transform-origin: 225.3px 241.05px;" id="el3f5cqrmgmr1" class="animable"></path><ellipse cx="236.96" cy="240.41" rx="1.55" ry=".78" style="fill: none; stroke: rgb(38, 50, 56); stroke-miterlimit: 10; transform-origin: 236.96px 240.41px;" id="elfnrggmd5ma6" class="animable"></ellipse><path d="M244.73,255.7c0,.57-.41,1.04-.91,1.04s-.91-.46-.91-1.04,.41-1.04,.91-1.04,.91,.46,.91,1.04Z" style="fill: none; stroke: rgb(38, 50, 56); stroke-miterlimit: 10; transform-origin: 243.82px 255.7px;" id="eligxhc62kwh" class="animable"></path></g><g id="el5g7j5v9ux67" class="animable" style="transform-origin: 273.285px 282.058px;"><path d="M301.11,276.01s-.77,15.66-1.35,18.56c-.58,2.9-1.93,6.38-15.27,8.31-13.34,1.93-25.52,1.74-30.73-1.16-5.22-2.9-8.31-9.09-8.31-9.09l1.55-18.56,54.12,1.93Z" style="fill: rgb(158, 158, 158); stroke: rgb(38, 50, 56); stroke-miterlimit: 10; transform-origin: 273.285px 289.108px;" id="elgv3ze8anwg8" class="animable"></path><ellipse cx="274.34" cy="276.01" rx="26.77" ry="16.04" style="fill: rgb(214, 214, 214); stroke: rgb(38, 50, 56); stroke-miterlimit: 10; transform-origin: 274.34px 276.01px;" id="elw69j0dk8vg" class="animable"></ellipse><path d="M267.02,284.34c0,1.07-1.22,1.94-2.72,1.94s-2.72-.87-2.72-1.94,1.22-1.94,2.72-1.94,2.72,.87,2.72,1.94Z" style="fill: none; stroke: rgb(38, 50, 56); stroke-miterlimit: 10; transform-origin: 264.3px 284.34px;" id="elrfp5er40z9r" class="animable"></path><ellipse cx="276.74" cy="287.19" rx="1.94" ry=".91" style="fill: none; stroke: rgb(38, 50, 56); stroke-miterlimit: 10; transform-origin: 276.74px 287.19px;" id="elxafwcs6eroh" class="animable"></ellipse><path d="M272.2,279.8c0,.43-.7,.78-1.55,.78s-1.55-.35-1.55-.78,.7-.78,1.55-.78,1.55,.35,1.55,.78Z" style="fill: none; stroke: rgb(38, 50, 56); stroke-miterlimit: 10; transform-origin: 270.65px 279.8px;" id="el8qalts27kqv" class="animable"></path><path d="M268.32,273.32c0,.29-.58,.52-1.3,.52s-1.3-.23-1.3-.52,.58-.52,1.3-.52,1.3,.23,1.3,.52Z" style="fill: none; stroke: rgb(38, 50, 56); stroke-miterlimit: 10; transform-origin: 267.02px 273.32px;" id="el4z0igj5pe0e" class="animable"></path><path d="M283.87,276.69c0,.43-.81,.78-1.81,.78s-1.81-.35-1.81-.78,.81-.78,1.81-.78,1.81,.35,1.81,.78Z" style="fill: none; stroke: rgb(38, 50, 56); stroke-miterlimit: 10; transform-origin: 282.06px 276.69px;" id="el6ulqwjrjau" class="animable"></path></g><g id="el1x330ajxan9" class="animable" style="transform-origin: 81.1522px 331.691px;"><path d="M94.81,280.14s-10.26,15.86-16.49,22.4c-6.22,6.53-18.97,28.31-21.46,41.99-2.49,13.69-1.24,18.35-1.24,21.15s0,6.84,.31,9.64,0,6.53,2.18,6.53,8.4-.31,9.33,0c.93,.31-2.49,1.24,4.35,1.87,6.84,.62,6.53,.93,8.71,.62,2.18-.31,5.29-1.87,5.29-1.87l2.18-2.18,2.18-6.22-.62-4.35-1.87-7.47-1.24-4.67-.62-5.29v-5.29l.62-6.53,1.56-3.73s.31-.93,.62-4.04c.31-3.11,14.62-30.48,16.8-37.64,2.18-7.15,2.18-14-.31-14.93-2.49-.93-8.09-2.18-10.26,0Z" style="fill: rgb(158, 158, 158); stroke: rgb(38, 50, 56); stroke-miterlimit: 10; transform-origin: 81.1522px 331.691px;" id="el2ihnpgzm81t" class="animable"></path><path d="M79.43,369.07c-1.62-3.06-3.28-4.92-3.28-8.99,0-5.29,1.24-10.26,1.24-10.26l1.87-5.29,.62-4.67,1.24-7.47,.62-2.49" style="fill: none; stroke: rgb(38, 50, 56); stroke-miterlimit: 10; transform-origin: 78.945px 349.485px;" id="elhbxw438gv94" class="animable"></path><path d="M78.02,380.61s4.67-3.11,2.8-8.4" style="fill: none; stroke: rgb(38, 50, 56); stroke-miterlimit: 10; transform-origin: 79.6409px 376.41px;" id="el82cegxe6lem" class="animable"></path><path d="M69.05,333.19c-1.8,4.43-3.48,10.09-3.48,10.09l.93,9.02,1.56,7.78v2.49l-2.18,2.8-.31,6.22" style="fill: none; stroke: rgb(38, 50, 56); stroke-miterlimit: 10; transform-origin: 67.31px 352.39px;" id="ele6pzd7294ya" class="animable"></path><path d="M80.82,313.73s-7.93,11.74-10.37,16.4" style="fill: none; stroke: rgb(38, 50, 56); stroke-miterlimit: 10; transform-origin: 75.635px 321.93px;" id="elip4oawfqn7" class="animable"></path><path d="M85.79,376.25s2.18-5.6,.93-9.02-2.49-9.33-2.49-9.33l-.62-7.15s4.04,.62,2.18-3.73" style="fill: none; stroke: rgb(38, 50, 56); stroke-miterlimit: 10; transform-origin: 85.3584px 361.635px;" id="elxn8gb3jfpf" class="animable"></path><path d="M59.67,360.39s.93,7.47,.31,10.26c-.62,2.8-.31,6.84,.93,7.47" style="fill: none; stroke: rgb(38, 50, 56); stroke-miterlimit: 10; transform-origin: 60.29px 369.255px;" id="elawgvpns3su5" class="animable"></path></g><g id="elvbp0vpmb3da" class="animable" style="transform-origin: 113.673px 330.819px;"><path d="M98.86,270.18s-10.58,24.57-13.06,34.22c-2.49,9.64,0,27.37,0,27.37l.62,8.71,3.73,10.26s1.87,4.04,4.35,6.84,8.4,11.2,9.33,14.62c.93,3.42,6.22,9.64,6.84,12.13s10.26,7.15,10.26,7.15l3.73,2.18,10.26-.62s2.49-3.42,3.73-4.98c1.24-1.56,3.11-3.42,3.11-3.42l.62-4.98s1.24-1.87-1.56-5.29c-2.8-3.42,1.56-.62-2.8-3.42-4.35-2.8-4.35-2.18-5.91-4.67-1.56-2.49-3.73-4.98-3.73-4.98l-4.35-4.67-5.6-7.47s-.93-4.04-2.49-6.22c-1.56-2.18-3.11-5.29-3.11-5.29,0,0-.62,2.8-1.87-6.84s-1.24-12.75-1.24-12.75l.62-6.84s8.09-6.22,9.33-11.82c1.24-5.6,2.8-8.71,2.8-8.71l1.87-10.26-5.29-6.84-3.42-1.87-4.35-1.24-2.49-2.49s-7.78-.31-9.95,2.18Z" style="fill: rgb(158, 158, 158); stroke: rgb(38, 50, 56); stroke-miterlimit: 10; transform-origin: 113.673px 330.819px;" id="el5sjqdwsc9o3" class="animable"></path><polyline points="100.1 349.5 100.72 354.48 103.52 358.52" style="fill: none; stroke: rgb(38, 50, 56); stroke-miterlimit: 10; transform-origin: 101.81px 354.01px;" id="eln8crdyi1cn" class="animable"></polyline><path d="M90.15,311.55s.31,7.47,.31,12.13,3.42,7.47,3.42,9.02-.93,8.4-.93,8.4l5.6,5.91" style="fill: none; stroke: rgb(38, 50, 56); stroke-miterlimit: 10; transform-origin: 94.35px 329.28px;" id="elf6aw4kt0wv7" class="animable"></path><path d="M117.76,374.24c1.95,2.86,4.11,5.74,4.11,5.74l7.47,2.49,3.42-.31" style="fill: none; stroke: rgb(38, 50, 56); stroke-miterlimit: 10; transform-origin: 125.26px 378.355px;" id="elj3iceqil98" class="animable"></path><path d="M104.15,348.26s5.91,6.53,6.53,9.64c.62,3.11,3.42,9.02,4.04,11.2,.26,.93,.59,1.34,2.04,3.46" style="fill: none; stroke: rgb(38, 50, 56); stroke-miterlimit: 10; transform-origin: 110.455px 360.41px;" id="ele252cp0nw5m" class="animable"></path><path d="M125.32,389.52c.53,.24,.91,.41,.91,.41h2.49l2.8-2.18h0" style="fill: none; stroke: rgb(38, 50, 56); stroke-miterlimit: 10; transform-origin: 128.42px 388.84px;" id="el48wkwflpsh7" class="animable"></path><path d="M105.08,366.92s10.58,13.38,12.13,16.17c1.56,2.8,4.35,4.35,5.29,4.98" style="fill: none; stroke: rgb(38, 50, 56); stroke-miterlimit: 10; transform-origin: 113.79px 377.495px;" id="el97c76anig58" class="animable"></path><path d="M107.71,304.03c-.24,1.34-.59,3.83-.14,4.72,.62,1.24-.93,4.04-.93,4.04l-.93,6.84,.93,7.47,1.87,5.6v5.91" style="fill: none; stroke: rgb(38, 50, 56); stroke-miterlimit: 10; transform-origin: 107.11px 321.32px;" id="elc1kbd0vjui5" class="animable"></path><path d="M112.23,286.67s-1.87,7.78-2.18,8.71c-.21,.62-1.09,3.81-1.67,5.91" style="fill: none; stroke: rgb(38, 50, 56); stroke-miterlimit: 10; transform-origin: 110.305px 293.98px;" id="elhkl7jz5gfck" class="animable"></path><path d="M97.28,322.48c.01,.56,.02,.89,.02,.89l1.24,4.04" style="fill: none; stroke: rgb(38, 50, 56); stroke-miterlimit: 10; transform-origin: 97.91px 324.945px;" id="elg6nqrdmtcrn" class="animable"></path><path d="M101.35,291.96s-2.18,10.58-2.8,12.75-1.56,2.18-1.56,4.35c0,1.43,.13,7.17,.23,10.93" style="fill: none; stroke: rgb(38, 50, 56); stroke-miterlimit: 10; transform-origin: 99.17px 305.975px;" id="el2yu1s8l206j" class="animable"></path></g><g id="elrvaiv6ca6i" class="animable" style="transform-origin: 293.044px 347.584px;"><path d="M322.5,302.22s-14.62-6.22-37.95-6.22-46.35,17.11-51.01,26.13-2.8,30.17-1.24,34.53c1.56,4.35,15.24,28.62,24.88,34.53s35.15,9.33,50.08,7.47c14.93-1.87,39.5-20.53,45.1-35.15,5.6-14.62,2.8-29.24-1.24-36.08-4.04-6.84-17.42-22.08-28.62-25.2Z" style="fill: rgb(255, 255, 255); stroke: rgb(38, 50, 56); stroke-miterlimit: 10; transform-origin: 293.044px 347.584px;" id="elyoqor01liet" class="animable"></path><path d="M278.34,319.95s-15.24,5.29-18.97,16.49,2.49,22.4,23.02,28.31c20.53,5.91,42.93-7.78,44.48-18.66,1.56-10.89-10.58-22.08-23.95-25.2-13.38-3.11-24.57-.93-24.57-.93Z" style="fill: rgb(255, 114, 94); stroke: rgb(38, 50, 56); stroke-miterlimit: 10; transform-origin: 292.677px 342.696px;" id="ellvurd2cfg7" class="animable"></path><g id="elfgrefmujsld"><g style="opacity: 0.3; transform-origin: 285.18px 345.92px;" class="animable"><path d="M272.58,343.75c0,.6,.49,1.09,1.09,1.09s1.09-.49,1.09-1.09-.49-1.09-1.09-1.09-1.09,.49-1.09,1.09Z" id="eltw6xj0s9iz9" class="animable" style="transform-origin: 273.67px 343.75px;"></path><path d="M261.07,337.52c0,.43,.7,.78,1.56,.78s1.56-.35,1.56-.78-.7-.78-1.56-.78-1.56,.35-1.56,.78Z" id="el2kzeumfbxo" class="animable" style="transform-origin: 262.63px 337.52px;"></path><path d="M258.06,346.52c0,.93,.95,1.68,2.13,1.68s2.13-.75,2.13-1.68-.95-1.68-2.13-1.68-2.13,.75-2.13,1.68Z" id="elj9be3ngqa8" class="animable" style="transform-origin: 260.19px 346.52px;"></path><path d="M262.94,351.99c0,.52,.49,.93,1.09,.93s1.09-.42,1.09-.93-.49-.93-1.09-.93-1.09,.42-1.09,.93Z" id="elggi59mckzgt" class="animable" style="transform-origin: 264.03px 351.99px;"></path><path d="M271.03,355.25c0,.43,.77,.78,1.71,.78s1.71-.35,1.71-.78-.77-.78-1.71-.78-1.71,.35-1.71,.78Z" id="elhj1r4f8w8rs" class="animable" style="transform-origin: 272.74px 355.25px;"></path><ellipse cx="282.53" cy="348.72" rx="2.18" ry="1.09" id="elr2uv5ajzmd9" class="animable" style="transform-origin: 282.53px 348.72px;"></ellipse><path d="M280.05,335.81c0,.52,.49,.93,1.09,.93s1.09-.42,1.09-.93-.49-.93-1.09-.93-1.09,.42-1.09,.93Z" id="el2svi6kes7om" class="animable" style="transform-origin: 281.14px 335.81px;"></path><path d="M285.96,328.66c0,.86,1.04,1.56,2.33,1.56s2.33-.7,2.33-1.56-1.04-1.56-2.33-1.56-2.33,.7-2.33,1.56Z" id="el41bpdz52n0b" class="animable" style="transform-origin: 288.29px 328.66px;"></path><path d="M295.6,333.48c0,.26,.35,.47,.78,.47s.78-.21,.78-.47-.35-.47-.78-.47-.78,.21-.78,.47Z" id="el3ulklyvbwyt" class="animable" style="transform-origin: 296.38px 333.48px;"></path><path d="M305.55,342.19c0,.43,.42,.78,.93,.78s.93-.35,.93-.78-.42-.78-.93-.78-.93,.35-.93,.78Z" id="elb69and3qbzb" class="animable" style="transform-origin: 306.48px 342.19px;"></path><ellipse cx="273.82" cy="322.59" rx="1.24" ry=".78" id="eldl3z6rai5gn" class="animable" style="transform-origin: 273.82px 322.59px;"></ellipse><path d="M280.98,322.13c0,.52,.49,.93,1.09,.93s1.09-.42,1.09-.93-.49-.93-1.09-.93-1.09,.42-1.09,.93Z" id="eljpcczu2mlrs" class="animable" style="transform-origin: 282.07px 322.13px;"></path><path d="M265.12,322.44c0,.86,.7,1.56,1.56,1.56s1.56-.7,1.56-1.56-.7-1.56-1.56-1.56-1.56,.7-1.56,1.56Z" id="elmd6412ln6" class="animable" style="transform-origin: 266.68px 322.44px;"></path><path d="M256.72,325.7c0,.43,.56,.78,1.24,.78s1.24-.35,1.24-.78-.56-.78-1.24-.78-1.24,.35-1.24,.78Z" id="elqd6akfajqza" class="animable" style="transform-origin: 257.96px 325.7px;"></path><path d="M290,361.48c0,.77,.63,1.4,1.4,1.4s1.4-.63,1.4-1.4-.63-1.4-1.4-1.4-1.4,.63-1.4,1.4Z" id="elqqn41i29jj" class="animable" style="transform-origin: 291.4px 361.48px;"></path><ellipse cx="281.13" cy="368.32" rx="2.33" ry="1.09" id="elt55vy7jnhmn" class="animable" style="transform-origin: 281.13px 368.32px;"></ellipse><path d="M316.44,364.74c0,.34,.63,.62,1.4,.62s1.4-.28,1.4-.62-.63-.62-1.4-.62-1.4,.28-1.4,.62Z" id="elozx6lb0us5i" class="animable" style="transform-origin: 317.84px 364.74px;"></path><ellipse cx="311.62" cy="369.1" rx="1.71" ry="1.24" id="el40nhx45oqvm" class="animable" style="transform-origin: 311.62px 369.1px;"></ellipse><path d="M314.57,352.61c0,.52,.63,.93,1.4,.93s1.4-.42,1.4-.93-.63-.93-1.4-.93-1.4,.42-1.4,.93Z" id="elj8dsi70esd" class="animable" style="transform-origin: 315.97px 352.61px;"></path><path d="M310.53,349.66c0,.6,.63,1.09,1.4,1.09s1.4-.49,1.4-1.09-.63-1.09-1.4-1.09-1.4,.49-1.4,1.09Z" id="elub1w9x9sj7s" class="animable" style="transform-origin: 311.93px 349.66px;"></path><path d="M296.22,349.81c0,1.03,.91,1.87,2.02,1.87s2.02-.84,2.02-1.87-.91-1.87-2.02-1.87-2.02,.84-2.02,1.87Z" id="elvwwuqvbl19m" class="animable" style="transform-origin: 298.24px 349.81px;"></path><ellipse cx="293.27" cy="344.06" rx=".47" ry=".78" id="elvkprqj676b" class="animable" style="transform-origin: 293.27px 344.06px;"></ellipse><path d="M267.29,359.61c0,.6,.77,1.09,1.71,1.09s1.71-.49,1.71-1.09-.77-1.09-1.71-1.09-1.71,.49-1.71,1.09Z" id="elf0nbrfwfoiv" class="animable" style="transform-origin: 269px 359.61px;"></path><path d="M256.72,370.03c0,.52,.56,.93,1.24,.93s1.24-.42,1.24-.93-.56-.93-1.24-.93-1.24,.42-1.24,.93Z" id="eljxn7eny3fx" class="animable" style="transform-origin: 257.96px 370.03px;"></path><path d="M273.2,334.26c0,.52,.35,.93,.78,.93s.78-.42,.78-.93-.35-.93-.78-.93-.78,.42-.78,.93Z" id="elfxlj5u1815e" class="animable" style="transform-origin: 273.98px 334.26px;"></path><path d="M251.12,339.7c0,.77,.77,1.4,1.71,1.4s1.71-.63,1.71-1.4-.77-1.4-1.71-1.4-1.71,.63-1.71,1.4Z" id="el0sa1bwdrarf" class="animable" style="transform-origin: 252.83px 339.7px;"></path><path d="M284.09,340.64c0,.43,.56,.78,1.24,.78s1.24-.35,1.24-.78-.56-.78-1.24-.78-1.24,.35-1.24,.78Z" id="elr39rq0v8vx" class="animable" style="transform-origin: 285.33px 340.64px;"></path><ellipse cx="273.51" cy="349.81" rx="1.87" ry="1.24" id="elxz473slktne" class="animable" style="transform-origin: 273.51px 349.81px;"></ellipse></g></g></g><g id="elfoonhmrhhh4" class="animable" style="transform-origin: 186.102px 283.626px;"><path d="M123.43,287.91s2.8,18.04,5.6,22.4c2.8,4.35,28.93,23.95,36.39,25.2,7.47,1.24,18.97-4.98,18.97-4.98,0,0,14.31,6.53,23.02,3.42,8.71-3.11,35.15-25.82,37.95-30.79,2.8-4.98,4.67-18.97,4.35-20.22-.31-1.24-44.79,34.84-56.92,36.7-12.13,1.87-69.36-31.73-69.36-31.73Z" style="fill: rgb(214, 214, 214); stroke: rgb(38, 50, 56); stroke-miterlimit: 10; transform-origin: 186.588px 309.291px;" id="elvwgnfrdbqq" class="animable"></path><path d="M244.43,260.85s-44.48-27.37-50.7-28.93c-6.22-1.56-21.77,2.18-38.26,12.44s-38.57,24.88-39.81,31.73c-1.24,6.84,2.49,12.13,9.95,17.11,7.47,4.98,44.17,37.95,49.77,39.81,5.6,1.87,12.13,0,14.93-.93,2.8-.93,59.1-45.41,63.77-48.84,4.67-3.42,4.35-13.06-9.64-22.4Z" style="fill: rgb(255, 255, 255); stroke: rgb(38, 50, 56); stroke-miterlimit: 10; transform-origin: 186.102px 282.695px;" id="el220wwor9t7bh" class="animable"></path><path d="M126.54,273.29s.31,7.78,2.49,10.89,7.15,6.53,7.15,6.53c0,0,.93,3.73,6.84,7.47,5.91,3.73,14,5.6,14,5.6,0,0,1.56,.93,8.71,2.8,7.15,1.87,11.82,.93,11.82,.93,0,0,6.22,4.67,21.77,3.11,15.55-1.56,23.02-8.4,24.57-11.51,1.56-3.11,5.29-6.84,5.29-6.84,0,0,13.06-5.29,15.24-15.55,2.18-10.26-9.64-16.8-10.89-18.04s-2.18-5.91-10.26-9.33c-8.09-3.42-10.89-5.29-10.89-5.29,0,0,3.11-3.11-3.11-4.98-6.22-1.87-8.09,.31-8.09,.31,0,0-13.06-4.35-16.8-3.73-3.73,.62-5.91,3.42-5.91,3.42,0,0-6.22-2.18-10.58,.93-4.35,3.11-4.98,4.67-4.98,4.67,0,0-3.42,1.24-6.22,3.11-2.8,1.87-9.95,4.67-9.95,4.67,0,0-1.24-2.18-4.35,1.24-3.11,3.42-4.67,6.53-4.67,6.53,0,0-3.11,2.49-4.35,3.42-1.24,.93-1.56,1.24-3.11,2.8-1.56,1.56-4.35,5.29-3.73,6.84Z" style="fill: rgb(255, 114, 94); stroke: rgb(38, 50, 56); stroke-miterlimit: 10; transform-origin: 185.565px 273.269px;" id="elgmmjqzrpr4s" class="animable"></path><path d="M197.89,295.78c-.14-1.77-.63-3.51-1.57-5.01-1.43-2.29-4.02-4.39-8.19-1.3-3.96,2.92-4.04,10.26-4.98,13.69-.93,3.42,3.73,8.09,9.95,5.6,5.56-2.22,5.16-8.18,4.79-12.97Z" style="fill: none; stroke: rgb(38, 50, 56); stroke-miterlimit: 10; transform-origin: 190.556px 298.69px;" id="elgsix9j0bpwg" class="animable"></path><path d="M214.57,286.98s-4.98-.62-6.22,4.04,.93,11.2,4.67,12.13c3.73,.93,8.4,.31,7.15-7.78s-5.6-8.4-5.6-8.4Z" style="fill: none; stroke: rgb(38, 50, 56); stroke-miterlimit: 10; transform-origin: 214.188px 295.214px;" id="eloxpk58tpcc" class="animable"></path><path d="M181.9,286.5s-.37-5-5.19-5.3c-4.82-.3-10.79,3.12-10.97,6.96s1.35,8.3,9.03,5.48c7.68-2.81,7.13-7.14,7.13-7.14Z" style="fill: none; stroke: rgb(38, 50, 56); stroke-miterlimit: 10; transform-origin: 173.817px 287.855px;" id="eljoo45647qv" class="animable"></path><path d="M154.53,296.53s4.99-.49,5.17-5.32c.18-4.83-3.39-10.71-7.23-10.8-3.85-.09-8.26,1.55-5.26,9.17s7.32,6.95,7.32,6.95Z" style="fill: none; stroke: rgb(38, 50, 56); stroke-miterlimit: 10; transform-origin: 152.963px 288.476px;" id="elw7fn5igdcyg" class="animable"></path><path d="M208.04,271.11s-3.42,1.87-2.8,6.53,5.29,5.29,8.4,3.11c3.11-2.18,4.67-6.22,4.67-6.22" style="fill: none; stroke: rgb(38, 50, 56); stroke-miterlimit: 10; transform-origin: 211.737px 276.532px;" id="elh6khlgui444" class="animable"></path><path d="M224.52,275.47s-7.78,3.73-10.26,7.15c-2.49,3.42,4.67,6.53,8.4,5.29,3.73-1.24,5.29-5.29,5.29-5.29" style="fill: none; stroke: rgb(38, 50, 56); stroke-miterlimit: 10; transform-origin: 220.848px 281.829px;" id="elcz9ydtp2zqr" class="animable"></path><path d="M159.82,269.87s-2.8-3.73-7.78-2.49-5.91,8.09-5.6,9.33c.31,1.24,2.09,4.28,6.02,3.7,3.93-.59,7.36-3.39,7.98-4.94" style="fill: none; stroke: rgb(38, 50, 56); stroke-miterlimit: 10; transform-origin: 153.413px 273.805px;" id="elpfg7953vh6" class="animable"></path><path d="M159.82,257.12s1.87-2.8-2.8-4.04c-4.67-1.24-11.2,2.18-12.13,4.67-.93,2.49,1.87,3.73,5.91,3.73s6.22-.62,6.22-.62" style="fill: none; stroke: rgb(38, 50, 56); stroke-miterlimit: 10; transform-origin: 152.45px 257.149px;" id="elvkk1xzhdilh" class="animable"></path><path d="M145.52,273.91c-1.56,1.87-6.22,3.11-9.02,.62-2.8-2.49,0-8.09,3.11-10.58s5.91-2.8,5.91-2.8c0,0,3.42,0,4.04,2.49l.62,2.49" style="fill: none; stroke: rgb(38, 50, 56); stroke-miterlimit: 10; transform-origin: 142.764px 268.538px;" id="eledpbzbs59u" class="animable"></path><path d="M180.04,241.56s3.11,2.18,1.87,4.98c-1.24,2.8-9.02,4.04-13.06,3.11s-3.42-4.98-3.42-4.98" style="fill: none; stroke: rgb(38, 50, 56); stroke-miterlimit: 10; transform-origin: 173.799px 245.758px;" id="elczscjrjl0ht" class="animable"></path><path d="M180.04,259.61s2.18-3.73,4.67-4.35,5.91,0,5.91,0c0,0,3.11-.31,4.04-.93,.93-.62,2.49-1.24,2.49-1.24l-.93,3.73-3.11,2.49,4.67,2.18s-4.67,.31-5.91,.31,3.11,2.18,4.98,2.8c1.87,.62,4.67,1.56,5.91,2.49l-2.8,2.18s.93,1.24,.93,2.8v1.56h0s-3.73-.31-5.29-1.56c-1.56-1.24-2.8-1.24-3.42-2.8s2.18,.62-.62-1.56c-2.8-2.18-5.29-3.11-5.29-3.11l-4.04-1.56s4.35,4.98,4.98,6.53c.62,1.56-.62,3.73-.62,3.73l-1.87,3.42-1.24-4.67-5.29,2.8s.62-2.18,.93-5.6c.31-3.42,1.24-1.24,.31-3.42l-.93-2.18s-1.56,3.11-2.18,4.04c-.62,.93-2.18,2.18-2.18,2.18l-2.18,1.87,.62-5.29v-2.18l-6.53-3.73s6.53-.93,10.26,.93c3.16,1.58,3.76-.11,3.73-1.87Z" style="fill: rgb(158, 158, 158); stroke: rgb(38, 50, 56); stroke-miterlimit: 10; transform-origin: 184.405px 264.905px;" id="elct5350ihh6" class="animable"></path><path d="M231.68,263.65s-2.8,2.8-.62,5.29c2.18,2.49,5.29,2.8,7.47,1.56,2.18-1.24,1.56-5.29-.31-6.53" style="fill: none; stroke: rgb(38, 50, 56); stroke-miterlimit: 10; transform-origin: 235.071px 267.429px;" id="el71kiai1xy06" class="animable"></path><path d="M218.92,264.27s5.6-1.24,7.47,2.49-.93,6.22-.93,6.22" style="fill: none; stroke: rgb(38, 50, 56); stroke-miterlimit: 10; transform-origin: 222.977px 268.526px;" id="eldo6s1vgkxsa" class="animable"></path><path d="M163.25,292.58s-3.42,4.35-1.24,8.09c2.18,3.73,8.09,4.04,9.95,2.49,1.87-1.56,.93-4.98,.93-4.98" style="fill: none; stroke: rgb(38, 50, 56); stroke-miterlimit: 10; transform-origin: 167.205px 298.309px;" id="elqt06czk62m" class="animable"></path><path d="M145.52,278.89s-3.73-2.49-6.22,2.49c-2.49,4.98-3.41,11.6,5.91,13.38" style="fill: none; stroke: rgb(38, 50, 56); stroke-miterlimit: 10; transform-origin: 141.568px 286.514px;" id="elfh0fc72f2ht" class="animable"></path><path d="M192.69,293.9c0,1.31-1.13,2.38-2.52,2.38s-2.52-1.06-2.52-2.38,1.13-2.38,2.52-2.38,2.52,1.06,2.52,2.38Z" style="fill: rgb(255, 255, 255); transform-origin: 190.17px 293.9px;" id="elbthogeyqlxa" class="animable"></path><ellipse cx="211.7" cy="291.25" rx="2.24" ry="1.68" style="fill: rgb(255, 255, 255); transform-origin: 211.7px 291.25px;" id="elk6jkcmz2ok" class="animable"></ellipse><path d="M174.8,287.05c0,1.08-1.13,1.96-2.52,1.96s-2.52-.88-2.52-1.96,1.13-1.96,2.52-1.96,2.52,.88,2.52,1.96Z" style="fill: rgb(255, 255, 255); transform-origin: 172.28px 287.05px;" id="elc8vwys8d78r" class="animable"></path><path d="M155.51,270c0,1.08-1.31,1.96-2.94,1.96s-2.94-.88-2.94-1.96,1.31-1.96,2.94-1.96,2.94,.88,2.94,1.96Z" style="fill: rgb(255, 255, 255); transform-origin: 152.57px 270px;" id="elgl2evvd6ybt" class="animable"></path><path d="M173.79,243.62c0,.88-1.28,1.59-2.85,1.59s-2.85-.71-2.85-1.59,1.28-1.59,2.85-1.59,2.85,.71,2.85,1.59Z" style="fill: rgb(255, 255, 255); transform-origin: 170.94px 243.62px;" id="el5wlnrvunish" class="animable"></path><path d="M147.12,264.41c0,.77-.94,1.4-2.1,1.4s-2.1-.63-2.1-1.4,.94-1.4,2.1-1.4,2.1,.63,2.1,1.4Z" style="fill: rgb(255, 255, 255); transform-origin: 145.02px 264.41px;" id="elrad09oh7s4b" class="animable"></path><path d="M153.83,256.58c0,.62-1.06,1.12-2.38,1.12s-2.38-.5-2.38-1.12,1.06-1.12,2.38-1.12,2.38,.5,2.38,1.12Z" style="fill: rgb(255, 255, 255); transform-origin: 151.45px 256.58px;" id="el1by5ny0tvxk" class="animable"></path><ellipse cx="150.61" cy="284.26" rx="1.82" ry="1.12" style="fill: rgb(255, 255, 255); transform-origin: 150.61px 284.26px;" id="el4ijbro69ibi" class="animable"></ellipse><path d="M196.6,244.84c0,1.24-1.25,2.24-2.8,2.24s-2.8-1-2.8-2.24,1.25-2.24,2.8-2.24,2.8,1,2.8,2.24Z" style="fill: rgb(255, 255, 255); transform-origin: 193.8px 244.84px;" id="elq341u9h8l5c" class="animable"></path><path d="M208.9,252.38c0,.46-.69,.84-1.54,.84s-1.54-.38-1.54-.84,.69-.84,1.54-.84,1.54,.38,1.54,.84Z" style="fill: rgb(255, 255, 255); transform-origin: 207.36px 252.38px;" id="elq1w2yub0u0h" class="animable"></path><path d="M208.35,260.35c0,.69-.5,1.26-1.12,1.26s-1.12-.56-1.12-1.26,.5-1.26,1.12-1.26,1.12,.56,1.12,1.26Z" style="fill: rgb(255, 255, 255); transform-origin: 207.23px 260.35px;" id="elimwis5ai05" class="animable"></path><path d="M223.16,259.09c0,.93-1.06,1.68-2.38,1.68s-2.38-.75-2.38-1.68,1.06-1.68,2.38-1.68,2.38,.75,2.38,1.68Z" style="fill: rgb(255, 255, 255); transform-origin: 220.78px 259.09px;" id="el9ckovpct05o" class="animable"></path><path d="M171.72,254.2c0,.54-1.06,.98-2.38,.98s-2.38-.44-2.38-.98,1.06-.98,2.38-.98,2.38,.44,2.38,.98Z" style="fill: rgb(255, 255, 255); transform-origin: 169.34px 254.2px;" id="el3v0drofhbni" class="animable"></path><path d="M211.98,274.47c0,.77-.94,1.4-2.1,1.4s-2.1-.63-2.1-1.4,.94-1.4,2.1-1.4,2.1,.63,2.1,1.4Z" style="fill: rgb(255, 255, 255); transform-origin: 209.88px 274.47px;" id="elpob4oca2qo" class="animable"></path><path d="M225.44,283.63c0,1.05-.95,1.89-2.12,1.89s-2.12-.85-2.12-1.89,.95-1.89,2.12-1.89,2.12,.85,2.12,1.89Z" style="fill: rgb(255, 255, 255); transform-origin: 223.32px 283.63px;" id="elptaqeh6ul5" class="animable"></path></g></g></g><g id="freepik--Bread--inject-134" class="animable" style="transform-origin: 142.52px 88.8764px;"><g id="elvw9tuaatlte" class="animable" style="transform-origin: 142.52px 88.8764px;"><ellipse cx="143.44" cy="92.33" rx="114.76" ry="59.05" style="fill: rgb(38, 50, 56); stroke: rgb(38, 50, 56); stroke-miterlimit: 10; transform-origin: 143.44px 92.33px;" id="elk97c92to7wp" class="animable"></ellipse><ellipse cx="142.52" cy="88.19" rx="120.63" ry="59.05" style="fill: rgb(255, 114, 94); stroke: rgb(38, 50, 56); stroke-miterlimit: 10; transform-origin: 142.52px 88.19px;" id="elnay9acta6j" class="animable"></ellipse><ellipse cx="142.52" cy="87.36" rx="118.11" ry="56.38" style="fill: rgb(255, 255, 255); stroke: rgb(38, 50, 56); stroke-miterlimit: 10; transform-origin: 142.52px 87.36px;" id="elmtgg9kdeqcp" class="animable"></ellipse><g id="el7dtz7r8ls23" class="animable" style="transform-origin: 145.353px 79.1364px;"><path d="M44.67,90.14s93.75,41.76,96.73,41.76,15.21-13.21,15.21-13.21c0,0,3.11,4.26,7.8,2.13,4.69-2.13,87.78-39.63,87.78-39.63L83.87,60.74l-39.2,29.4Z" style="fill: rgb(38, 50, 56); stroke: rgb(38, 50, 56); stroke-miterlimit: 10; transform-origin: 148.43px 96.32px;" id="eluhxdbybdpr" class="animable"></path><path d="M102.79,29.55s-47.21,35.97-55.2,41.71c-7.99,5.75-8.74,5.99-8.99,8.74-.25,2.75,0,6.74,1.5,7.99s87.17,34.72,90.42,36.47,7.74,4.25,9.74,4c2-.25,57.45-63.2,58.95-67.07,1.5-3.87,3-10.62,2-11.86-1-1.25-87.92-22.23-90.42-22.98-2.5-.75-5.99,1-7.99,3Z" style="fill: rgb(255, 255, 255); stroke: rgb(38, 50, 56); stroke-miterlimit: 10; transform-origin: 120.025px 77.4251px;" id="elv66dcunawie" class="animable"></path><path d="M40.09,88c1.5,1.25,87.17,34.72,90.42,36.47,3.25,1.75,7.74,4.25,9.74,4,2-.25,57.45-63.2,58.95-67.07,1.05-2.71,2.09-6.82,2.29-9.48l-58.99,68.3s-3,1-5.25,.5S38.6,80,38.6,80c-.25,2.75,0,6.74,1.5,7.99Z" style="fill: rgb(255, 114, 94); stroke: rgb(38, 50, 56); stroke-miterlimit: 10; transform-origin: 120.003px 90.2037px;" id="elfdygz1x5gf7" class="animable"></path><path d="M91.05,72.63c0,.76-1.12,1.37-2.5,1.37s-2.5-.61-2.5-1.37,1.12-1.37,2.5-1.37,2.5,.62,2.5,1.37Z" style="fill: rgb(255, 255, 255); stroke: rgb(38, 50, 56); stroke-miterlimit: 10; transform-origin: 88.55px 72.63px;" id="elwtck66hpw0q" class="animable"></path><path d="M130.02,70.51c0,.69-1.23,1.25-2.75,1.25s-2.75-.56-2.75-1.25,1.23-1.25,2.75-1.25,2.75,.56,2.75,1.25Z" style="fill: rgb(255, 255, 255); stroke: rgb(38, 50, 56); stroke-miterlimit: 10; transform-origin: 127.27px 70.51px;" id="elasxvhdykzw" class="animable"></path><ellipse cx="104.04" cy="61.27" rx="2.75" ry="1.5" style="fill: rgb(255, 255, 255); stroke: rgb(38, 50, 56); stroke-miterlimit: 10; transform-origin: 104.04px 61.27px;" id="elhxrlpevphud" class="animable"></ellipse><path d="M118.03,56.4c0,.34-.5,.62-1.12,.62s-1.12-.28-1.12-.62,.5-.62,1.12-.62,1.12,.28,1.12,.62Z" style="fill: rgb(255, 255, 255); stroke: rgb(38, 50, 56); stroke-miterlimit: 10; transform-origin: 116.91px 56.4px;" id="elz2rpdtu019" class="animable"></path><path d="M140.26,57.15c0,.34-.5,.62-1.12,.62s-1.12-.28-1.12-.62,.5-.62,1.12-.62,1.12,.28,1.12,.62Z" style="fill: rgb(255, 255, 255); stroke: rgb(38, 50, 56); stroke-miterlimit: 10; transform-origin: 139.14px 57.15px;" id="elympnn5rfmn9" class="animable"></path><path d="M145.25,75.38c0,.48-1.01,.87-2.25,.87s-2.25-.39-2.25-.87,1.01-.87,2.25-.87,2.25,.39,2.25,.87Z" style="fill: rgb(255, 255, 255); stroke: rgb(38, 50, 56); stroke-miterlimit: 10; transform-origin: 143px 75.38px;" id="el8hvtk4tg73" class="animable"></path><path d="M124.77,81c0,.55-.73,1-1.62,1s-1.62-.45-1.62-1,.73-1,1.62-1,1.62,.45,1.62,1Z" style="fill: rgb(255, 255, 255); stroke: rgb(38, 50, 56); stroke-miterlimit: 10; transform-origin: 123.15px 81px;" id="eli6oufrui1oh" class="animable"></path><ellipse cx="109.16" cy="83.12" rx="2.37" ry="1.62" style="fill: rgb(255, 255, 255); stroke: rgb(38, 50, 56); stroke-miterlimit: 10; transform-origin: 109.16px 83.12px;" id="el6xklbdtgmo5" class="animable"></ellipse><path d="M133.01,92.62c0,.9-1.4,1.62-3.12,1.62s-3.12-.73-3.12-1.62,1.4-1.62,3.12-1.62,3.12,.73,3.12,1.62Z" style="fill: rgb(255, 255, 255); stroke: rgb(38, 50, 56); stroke-miterlimit: 10; transform-origin: 129.89px 92.62px;" id="elna2amzg51h" class="animable"></path><path d="M170.48,56.15c0,.62-1.17,1.12-2.62,1.12s-2.62-.5-2.62-1.12,1.17-1.12,2.62-1.12,2.62,.5,2.62,1.12Z" style="fill: rgb(255, 255, 255); stroke: rgb(38, 50, 56); stroke-miterlimit: 10; transform-origin: 167.86px 56.15px;" id="elgcp6hseti7o" class="animable"></path><ellipse cx="117.15" cy="38.16" rx="1.12" ry=".37" style="fill: rgb(255, 255, 255); stroke: rgb(38, 50, 56); stroke-miterlimit: 10; transform-origin: 117.15px 38.16px;" id="elodbii0ssmo" class="animable"></ellipse><ellipse cx="130.77" cy="42.66" rx="3" ry="1.62" style="fill: rgb(255, 255, 255); stroke: rgb(38, 50, 56); stroke-miterlimit: 10; transform-origin: 130.77px 42.66px;" id="el21cmscjdxgc" class="animable"></ellipse><path d="M101.79,47.16c0,.48-.95,.87-2.12,.87s-2.12-.39-2.12-.87,.95-.87,2.12-.87,2.12,.39,2.12,.87Z" style="fill: rgb(255, 255, 255); stroke: rgb(38, 50, 56); stroke-miterlimit: 10; transform-origin: 99.67px 47.16px;" id="eljr6msmj97ah" class="animable"></path></g><g id="el6tyhgoair4h" class="animable" style="transform-origin: 170.438px 73.9578px;"><path d="M169.22,33.34s-29.22,10.31-48.12,15.47c-18.9,5.16-40.67,10.31-40.67,14.32s-.57,8.59,1.72,9.74c2.29,1.15,40.67,23.49,52.13,31.51,11.46,8.02,17.19,14.32,22.34,14.32s63.74-27.54,80.77-32.65c28.64-8.59,22.34-10.88,22.91-14.89,.57-4.01-51.56-33.23-64.73-39.53-13.18-6.3-26.35,1.72-26.35,1.72Z" style="fill: rgb(255, 255, 255); stroke: rgb(38, 50, 56); stroke-miterlimit: 10; transform-origin: 170.443px 73.9578px;" id="elnga4xibqpy" class="animable"></path><path d="M82.14,72.87c2.29,1.15,40.67,23.49,52.13,31.51,11.46,8.02,17.19,14.32,22.34,14.32s63.74-27.54,80.77-32.65c28.64-8.59,22.34-10.88,22.91-14.89,0-.06,0-.13-.01-.2-1.3,.8-3.07,1.83-5.38,3.05-5.39,2.86-83.4,32.09-83.4,32.09-2.29,1.15-10.31,6.3-16.04,2.29-5.73-4.01-75.04-45.26-75.04-45.26,0,4.01-.57,8.59,1.72,9.74Z" style="fill: rgb(255, 114, 94); stroke: rgb(38, 50, 56); stroke-miterlimit: 10; transform-origin: 170.433px 90.915px;" id="el03sqgwk4ngi9" class="animable"></path><path d="M127.77,62.52c0,.55-.89,1-2,1s-2-.45-2-1,.89-1,2-1,2,.45,2,1Z" style="fill: rgb(255, 255, 255); stroke: rgb(38, 50, 56); stroke-miterlimit: 10; transform-origin: 125.77px 62.52px;" id="elscfjhbl32gp" class="animable"></path><path d="M138.26,77.25c0,.83-1.12,1.5-2.5,1.5s-2.5-.67-2.5-1.5,1.12-1.5,2.5-1.5,2.5,.67,2.5,1.5Z" style="fill: rgb(255, 255, 255); stroke: rgb(38, 50, 56); stroke-miterlimit: 10; transform-origin: 135.76px 77.25px;" id="eludapxf5cm4d" class="animable"></path><ellipse cx="151.87" cy="74.13" rx="1.87" ry="1.37" style="fill: rgb(255, 255, 255); stroke: rgb(38, 50, 56); stroke-miterlimit: 10; transform-origin: 151.87px 74.13px;" id="elz39pc69c3sc" class="animable"></ellipse><path d="M158.24,64.27c0,.41-.78,.75-1.75,.75s-1.75-.34-1.75-.75,.78-.75,1.75-.75,1.75,.34,1.75,.75Z" style="fill: rgb(255, 255, 255); stroke: rgb(38, 50, 56); stroke-miterlimit: 10; transform-origin: 156.49px 64.27px;" id="ellj9ws9ka5d" class="animable"></path><path d="M174.23,83.75c0,.41-.62,.75-1.37,.75s-1.37-.34-1.37-.75,.62-.75,1.37-.75,1.37,.34,1.37,.75Z" style="fill: rgb(255, 255, 255); stroke: rgb(38, 50, 56); stroke-miterlimit: 10; transform-origin: 172.86px 83.75px;" id="elar2l11e6hlh" class="animable"></path><path d="M197.71,84.12c0,.48-1.62,.87-3.62,.87s-3.62-.39-3.62-.87,1.62-.87,3.62-.87,3.62,.39,3.62,.87Z" style="fill: rgb(255, 255, 255); stroke: rgb(38, 50, 56); stroke-miterlimit: 10; transform-origin: 194.09px 84.12px;" id="elk6ktxjd10aq" class="animable"></path><path d="M220.94,76.76c0,.55-1.06,1-2.37,1s-2.37-.45-2.37-1,1.06-1,2.37-1,2.37,.45,2.37,1Z" style="fill: rgb(255, 255, 255); stroke: rgb(38, 50, 56); stroke-miterlimit: 10; transform-origin: 218.57px 76.76px;" id="elm0brfvli4u" class="animable"></path><path d="M203.45,61.39c0,.48-.95,.87-2.12,.87s-2.12-.39-2.12-.87,.95-.87,2.12-.87,2.12,.39,2.12,.87Z" style="fill: rgb(255, 255, 255); stroke: rgb(38, 50, 56); stroke-miterlimit: 10; transform-origin: 201.33px 61.39px;" id="elnd0qoo0wdh" class="animable"></path><ellipse cx="181.85" cy="38.16" rx="1.37" ry=".62" style="fill: rgb(255, 255, 255); stroke: rgb(38, 50, 56); stroke-miterlimit: 10; transform-origin: 181.85px 38.16px;" id="el39q5ipwrly6" class="animable"></ellipse><path d="M174.48,47.03c0,.55-.95,1-2.12,1s-2.12-.45-2.12-1,.95-1,2.12-1,2.12,.45,2.12,1Z" style="fill: rgb(255, 255, 255); stroke: rgb(38, 50, 56); stroke-miterlimit: 10; transform-origin: 172.36px 47.03px;" id="el3m57d8tmvfu" class="animable"></path><path d="M181.72,54.02s-18.23-2-24.48-1.75c-6.24,.25-11.74,4.25-16.49,8.24-4.75,4,3.5,6.74,8.74,7.74,5.25,1,28.48,2.5,34.72,4.5,6.24,2,12.49-2.5,15.49-5.99,3-3.5,3-8.74-.75-10.24s-17.24-2.5-17.24-2.5Z" style="fill: rgb(255, 255, 255); stroke: rgb(38, 50, 56); stroke-miterlimit: 10; transform-origin: 170.597px 62.7459px;" id="eltg6520qlcu" class="animable"></path></g></g></g><defs>     <filter id="active" height="200%">         <feMorphology in="SourceAlpha" result="DILATED" operator="dilate" radius="2"></feMorphology>                <feFlood flood-color="#32DFEC" flood-opacity="1" result="PINK"></feFlood>        <feComposite in="PINK" in2="DILATED" operator="in" result="OUTLINE"></feComposite>        <feMerge>            <feMergeNode in="OUTLINE"></feMergeNode>            <feMergeNode in="SourceGraphic"></feMergeNode>        </feMerge>    </filter>    <filter id="hover" height="200%">        <feMorphology in="SourceAlpha" result="DILATED" operator="dilate" radius="2"></feMorphology>                <feFlood flood-color="#ff0000" flood-opacity="0.5" result="PINK"></feFlood>        <feComposite in="PINK" in2="DILATED" operator="in" result="OUTLINE"></feComposite>        <feMerge>            <feMergeNode in="OUTLINE"></feMergeNode>            <feMergeNode in="SourceGraphic"></feMergeNode>        </feMerge>            <feColorMatrix type="matrix" values="0   0   0   0   0                0   1   0   0   0                0   0   0   0   0                0   0   0   1   0 "></feColorMatrix>    </filter></defs></svg>